<?xml version="1.0" standalone="no"?>
<!DOCTYPE svg PUBLIC "-//W3C//DTD SVG 20010904//EN"
 "http://www.w3.org/TR/2001/REC-SVG-20010904/DTD/svg10.dtd">
<svg version="1.0" xmlns="http://www.w3.org/2000/svg"
 width="342.000000pt" height="252.000000pt" viewBox="0 0 342.000000 252.000000"
 preserveAspectRatio="xMidYMid meet">

<g transform="translate(0.000000,252.000000) scale(0.100000,-0.100000)"
fill="#000000" stroke="none">
<path d="M1917 2423 c-3 -5 -12 -30 -20 -58 -8 -27 -63 -205 -122 -395 -132
-427 -511 -1651 -550 -1778 -10 -33 -11 -44 -2 -47 67 -23 291 -74 297 -68 4
4 14 31 22 58 9 28 63 205 122 395 59 190 156 503 216 695 59 193 156 505 215
695 59 190 113 364 120 388 10 33 11 44 2 47 -22 7 -284 75 -290 75 -3 0 -8
-3 -10 -7z"/>
<path d="M602 1684 l-442 -296 0 -136 0 -137 28 -16 c15 -9 108 -72 207 -139
279 -189 629 -426 643 -434 9 -6 12 31 12 171 l0 178 -78 50 c-308 198 -491
321 -489 328 2 7 106 76 429 284 l137 88 1 178 c0 97 -1 177 -3 177 -2 0 -202
-133 -445 -296z"/>
<path d="M2390 1803 l1 -178 284 -184 c157 -102 285 -187 285 -190 0 -4 -128
-89 -285 -191 l-285 -185 0 -179 0 -178 28 18 c15 9 209 141 432 292 223 151
411 276 418 279 9 4 12 42 12 143 l0 137 -432 290 c-238 159 -439 293 -445
297 -10 6 -13 -31 -13 -171z"/>
</g>
</svg>
